<?xml version="1.0" encoding="UTF-8"?>
<svg width="800" height="600" xmlns="http://www.w3.org/2000/svg">
  <defs>
    <style>
      .title { font-family: Arial, sans-serif; font-size: 24px; font-weight: bold; fill: #2c3e50; }
      .subtitle { font-family: Arial, sans-serif; font-size: 16px; font-weight: bold; fill: #34495e; }
      .text { font-family: Arial, sans-serif; font-size: 12px; fill: #2c3e50; }
      .small-text { font-family: Arial, sans-serif; font-size: 10px; fill: #7f8c8d; }
      .layer-box { fill: #ecf0f1; stroke: #bdc3c7; stroke-width: 2; }
      .security-box { fill: #e8f5e8; stroke: #27ae60; stroke-width: 2; }
      .data-box { fill: #e3f2fd; stroke: #3498db; stroke-width: 2; }
      .app-box { fill: #fff3e0; stroke: #f39c12; stroke-width: 2; }
      .arrow { stroke: #2c3e50; stroke-width: 2; fill: none; marker-end: url(#arrowhead); }
    </style>
    <marker id="arrowhead" markerWidth="10" markerHeight="7" refX="9" refY="3.5" orient="auto">
      <polygon points="0 0, 10 3.5, 0 7" fill="#2c3e50" />
    </marker>
  </defs>
  
  <!-- Title -->
  <text x="400" y="30" text-anchor="middle" class="title">RaghimAI Enterprise Security Architecture</text>
  
  <!-- External Layer -->
  <rect x="50" y="60" width="700" height="80" class="layer-box" rx="10"/>
  <text x="400" y="85" text-anchor="middle" class="subtitle">External Access Layer</text>
  <text x="100" y="105" class="text">• HTTPS/TLS 1.3 Encryption</text>
  <text x="100" y="120" class="text">• IP Whitelisting & Rate Limiting</text>
  <text x="100" y="135" class="text">• DDoS Protection & Firewall</text>
  
  <text x="500" y="105" class="text">• CORS Configuration</text>
  <text x="500" y="120" class="text">• VPN Detection</text>
  <text x="500" y="135" class="text">• Geographic Restrictions</text>
  
  <!-- Authentication Layer -->
  <rect x="50" y="160" width="700" height="80" class="security-box" rx="10"/>
  <text x="400" y="185" text-anchor="middle" class="subtitle">Authentication & Authorization</text>
  <text x="100" y="205" class="text">• JWT Token Authentication</text>
  <text x="100" y="220" class="text">• Multi-Factor Authentication (MFA)</text>
  <text x="100" y="235" class="text">• Single Sign-On (SSO)</text>
  
  <text x="500" y="205" class="text">• Role-Based Access Control (RBAC)</text>
  <text x="500" y="220" class="text">• Row-Level Security (RLS)</text>
  <text x="500" y="235" class="text">• Session Management</text>
  
  <!-- Application Layer -->
  <rect x="50" y="260" width="700" height="100" class="app-box" rx="10"/>
  <text x="400" y="285" text-anchor="middle" class="subtitle">Application Security Layer</text>
  <text x="100" y="305" class="text">• Input Validation & Sanitization</text>
  <text x="100" y="320" class="text">• Advanced Threat Detection</text>
  <text x="100" y="335" class="text">• AI Struggle Detection</text>
  <text x="100" y="350" class="text">• Suspicious Activity Monitoring</text>
  
  <text x="500" y="305" class="text">• Client-Side Encryption</text>
  <text x="500" y="320" class="text">• Zero-Knowledge Architecture</text>
  <text x="500" y="335" class="text">• PII Detection & Anonymization</text>
  <text x="500" y="350" class="text">• Banking Privacy Integration</text>
  
  <!-- Data Layer -->
  <rect x="50" y="380" width="700" height="100" class="data-box" rx="10"/>
  <text x="400" y="405" text-anchor="middle" class="subtitle">Data Protection Layer</text>
  <text x="100" y="425" class="text">• AES-256 Encryption at Rest</text>
  <text x="100" y="440" class="text">• Database Security Policies</text>
  <text x="100" y="455" class="text">• Multi-Tenant Data Isolation</text>
  <text x="100" y="470" class="text">• Automated Backup & Recovery</text>
  
  <text x="500" y="425" class="text">• Audit Logging & Compliance</text>
  <text x="500" y="440" class="text">• Data Retention Policies</text>
  <text x="500" y="455" class="text">• Regulatory Compliance (GDPR, HIPAA)</text>
  <text x="500" y="470" class="text">• Security Event Monitoring</text>
  
  <!-- Compliance Standards -->
  <rect x="50" y="500" width="700" height="80" class="layer-box" rx="10"/>
  <text x="400" y="525" text-anchor="middle" class="subtitle">Compliance & Standards</text>
  <text x="150" y="545" class="text">GDPR • CCPA • HIPAA • SOX</text>
  <text x="150" y="560" class="text">PCI DSS • ISO 27001 • SOC 2 • NIST</text>
  <text x="150" y="575" class="text">Basel III • MiFID II • FATCA • AML/KYC</text>
  
  <!-- Security Flow Arrows -->
  <line x1="400" y1="140" x2="400" y2="160" class="arrow"/>
  <line x1="400" y1="240" x2="400" y2="260" class="arrow"/>
  <line x1="400" y1="360" x2="400" y2="380" class="arrow"/>
  <line x1="400" y1="480" x2="400" y2="500" class="arrow"/>
  
  <!-- Legend -->
  <rect x="50" y="590" width="200" height="80" fill="white" stroke="#bdc3c7" stroke-width="1" rx="5"/>
  <text x="60" y="605" class="small-text">Security Layers:</text>
  <rect x="60" y="610" width="15" height="10" class="layer-box"/>
  <text x="80" y="620" class="small-text">Access Control</text>
  <rect x="60" y="625" width="15" height="10" class="security-box"/>
  <text x="80" y="635" class="small-text">Authentication</text>
  <rect x="60" y="640" width="15" height="10" class="app-box"/>
  <text x="80" y="650" class="small-text">Application</text>
  <rect x="60" y="655" width="15" height="10" class="data-box"/>
  <text x="80" y="665" class="small-text">Data Protection</text>
</svg>
